<svg xmlns="http://www.w3.org/2000/svg" xml:space="preserve" viewBox="0 0 2000 2000"><path fill="#FFF" d="M1 1530V1.06h2000c0 509.308 0 1018.676-.469 1528.495-95.106.45-189.744.456-284.381.407-2.058 0-4.115-.64-6.005-1.29 4.526-5.476 5.11-8.807 1.819-14.627-3.897-6.89-9.49-12.08-16.676-15.345 3.434-.438 6.585-.581 10.15-.721 16.894-.975 28.637-14.862 29.475-27.35 1-14.897 1.515-29.829 2.023-44.753.78-22.913 1.5-45.83 1.935-68.75.081-4.264 1.395-5.256 5.433-5.225 22.826.174 45.654.084 68.482.084h5.075l.004-.965h-4.912c-22.994 0-45.989-.09-68.982.088-3.967.03-5.47-1.107-5.002-5.07.484-4.108.828-8.245.973-12.378.724-20.583 1.347-41.17 2.033-61.754.647-19.418 1.336-38.835 1.99-58.252.678-20.084 1.334-40.169 2.004-60.253.663-19.917 1.344-39.833 1.995-59.75.683-20.918 1.328-41.837 2.008-62.755.654-20.085 1.331-40.17 1.995-60.254.67-20.25 1.334-40.501 2.004-60.752.664-20.085 1.334-40.17 1.998-60.254.67-20.25 1.33-40.502 2.004-60.752.658-19.752 1.45-39.5 1.96-59.256.508-19.62.767-39.245 1.054-58.87.03-2.122-.315-4.289-.766-6.375-2.659-12.298-15.822-21.996-29.685-20.385-103.632-.003-206.796-.001-309.96.009-2.33 0-4.661.106-7.208-.106-21.33-51.226-49.74-97.735-86.565-138.795-15.39-17.161-32.484-32.795-48.8-49.59.002-59.952.002-119.437.002-179.508-2.767 0-4.884 0-7.47-.005-81.964-.005-163.46-.038-244.955.08-4.258.006-5.827-.888-5.687-5.474.343-11.23.112-22.478.112-34.816-.436 2.859-.95 4.726-.967 6.597-.084 9.666-.15 19.334.02 28.998.058 3.324-.744 4.739-4.414 4.682-12.83-.197-25.665-.173-38.496-.011-3.372.042-4.257-1.199-4.205-4.374.159-9.664.138-19.333 0-28.997-.035-2.456-.763-4.901-1.173-7.351-.073 11.204.15 22.226.204 33.25.04 8.354.911 7.396-7.53 7.397-246.654.013-493.309.01-739.963.01-6.472 0-6.478.007-6.478 6.484v843.959c0 6.561.004 6.567 6.39 6.567 107.829.004 215.657.007 323.754.219 9.178 11.294 18.087 22.38 26.945 33.905-.397 2.561-.962 4.673-1.05 6.804-.416 10.119-.714 20.243-1.032 30.366-.677 21.577-1.312 43.156-2.018 64.733-.624 19.08-1.339 38.157-1.98 57.237-.69 20.577-1.343 41.156-2.008 61.734-.337 10.456-.734 20.91-.982 31.369a7805.89 7805.89 0 0 0-1.013 49.864c-.157 9.016 3.232 16.505 10.117 22.349 1.423 1.208 3.022 2.208 4.54 3.303L578.4 1496h-5.757c-77.819 0-155.638.006-233.456-.006-12.462-.002-22.42 5.188-30.224 14.647-5.374 6.514-5.264 11.473-.086 17.868.235.29.139.849.225 1.491H1M1021.712 233.106c.097-.035.194-.07.733-.316.275-.2.46-.464 1.157-1.08l5.386-5.6-1.825-1.312c-1.388 2.401-2.775 4.802-4.608 7.41-.277.199-.463.462-.843.898M160.208 1344.444c.201.275.466.459.868 1.265 1.306.765 2.612 1.53 4.035 3.02 3.323 1.092 6.645 3.136 9.97 3.14 127.954.162 255.909.137 383.863.127 1.276 0 2.552-.121 3.828-.186l-.032-.815h-6.925c-123.622 0-247.245-.015-370.868.04-6.845.003-13.62.115-20.23-3.633-1.24-.8-2.481-1.601-3.931-2.844-.196-.279-.458-.464-.867-1.2-.64-.453-1.281-.905-1.923-2.087l-1.927-4.718-1.451.85c1.128 1.533 2.256 3.065 3.468 5.238.638.453 1.275.906 2.122 1.803M160.704 228c1.43-1.002 2.86-2.003 4.863-3.073l.976-.916-.634-.546c-.302.513-.603 1.027-1.611 1.538-1.432 1-2.864 2-4.712 3.244l.052 1.058c.12-.436.24-.872 1.066-1.305m1671.315 2.487.364.832.377-.264c-.254-.352-.507-.704-.827-1.741l-3.722-4.311-1.311 1.503c1.7 1.165 3.4 2.33 5.119 3.98m-1659.081-8.483L285.41 222H734.797c37.324 0 74.649-.114 111.972.032 37.215.145 74.438-.656 111.703.268-2.625-.594-5.306-1.26-7.987-1.26-257.769-.049-515.537-.048-773.306-.005-1.727 0-3.454.628-5.777.959l-1.586.255.205.635c.66-.295 1.32-.59 2.917-.882M1836 692.5c0 210.79.014 421.582-.08 632.373-.003 5.202-1.208 10.404-1.852 15.606 1.737-3.542 2.861-7.306 2.862-11.07.08-361.261.075-722.522.075-1083.782v-4.475l-1.005.04V692.5m-1682.007 320v320.253l.67-.002V240.244h-.67V1012.5m1208.165-480.102 18.933 27.027c.674-.335 1.272-.578 1.81-.916.538-.338 1.015-.773 1.783-1.37-20.132-31.528-43.27-60.38-69.905-86.953-1.184 1.313-2.094 2.324-2.047 2.27 16.611 20.109 32.819 39.729 49.426 59.942m45.798 65.053-5.678-10.482c-3.648.807-4.01 2.212-2.39 5.242 4.444 8.32 8.564 16.813 12.743 25.272 1.883 3.81 3.6 7.703 5.322 11.408 3.595-.532 4.22-1.98 2.822-4.805-4.26-8.607-8.362-17.294-12.82-26.635m422.027 746.088-2.776 3.601 1.24.896 4.45-5.056-.835-.803c-.534.302-1.068.604-2.079 1.362M964.432 228.878l1.453-.201-2.52-2.865-.87.844c.494.6.989 1.2 1.938 2.222M156.59 235.65l.375-2.72-1.162.002c.129 1.058.257 2.116.787 2.718m1678.265-1.253v2.785l1.052-.073c-.157-.868-.314-1.737-1.052-2.712m-804.129-9.779c.502-.228 1.014-.441 1.49-.714.038-.022-.165-.463-.256-.709-.532.333-1.064.665-1.234 1.423m-62.931 6.766c-.004.4-.011.799.01 1.196.001.012.31.007.476.01.005-.4.01-.799-.486-1.206m854.033 1118.866.163.48c.053-.162.107-.324-.163-.48m3.576-1125.77s.122-.074 0 0m.002 1124.003s.12-.073 0 0zM2001 1532v468.968H1c0-155.999 0-312.03.469-468.514 109.112-.454 217.756-.454 326.4-.454 367.089 0 734.178.002 1101.267-.04 2.606 0 5.213-.605 8.269-.928 4.075.311 7.7.892 11.324.894 85.743.042 171.486.022 257.7.032 98.504.026 196.538.034 294.571.042m-592.011 172.505c1.808-.168 3.612-.417 5.424-.492 16.413-.683 32.829-1.289 49.24-2.008 21.872-.959 43.745-1.914 65.609-3.032a3034.06 3034.06 0 0 0 50.11-2.978 3422.889 3422.889 0 0 0 53.478-4.019c18.129-1.512 36.298-2.787 54.335-5.071 22.606-2.863 45.14-6.378 67.604-10.208 6.418-1.094 12.613-3.956 18.665-6.573 4.122-1.782 4.236-4.042.94-7.151-1.398-1.319-3.094-2.718-4.882-3.164-13.62-3.392-27.16-7.44-40.987-9.583-20.4-3.16-41.006-5.024-61.547-7.232a2389.766 2389.766 0 0 0-50.85-4.94c-14.185-1.219-28.4-2.11-42.61-3.015-17.03-1.085-34.07-2.071-51.11-3.023a4226.875 4226.875 0 0 0-39.239-1.995 6290.986 6290.986 0 0 0-46.24-2.006 9182.115 9182.115 0 0 0-55.238-1.998c-21.577-.716-43.156-1.395-64.737-1.999-14.954-.418-29.912-.702-44.868-1.01-17.289-.356-34.578-.716-51.868-.997-23.121-.375-46.244-.999-69.365-.953-102.614.202-205.227.556-307.84.971-26.623.108-53.244.584-79.865.993-13.458.206-26.912.66-40.369.964-15.955.36-31.912.637-47.866 1.029-10.292.252-20.58.637-30.87.979-19.913.662-39.827 1.289-59.737 2.02-16.083.59-32.163 1.266-48.24 1.99-21.205.953-42.411 1.907-63.608 3.02-16.378.86-32.748 1.889-49.112 2.982-18.666 1.246-37.33 2.538-55.98 4.016-14.506 1.15-29.023 2.322-43.473 4.014-20.511 2.4-41.032 4.875-61.417 8.139-10.394 1.664-20.579 4.865-30.684 7.945-2.515.767-4.353 3.758-6.502 5.727 1.89 1.878 3.47 4.76 5.726 5.462 10.39 3.23 20.85 6.451 31.508 8.535 12.631 2.47 25.47 3.934 38.256 5.533 13.774 1.723 27.58 3.222 41.396 4.58 9.389.922 18.827 1.332 28.229 2.148 14.002 1.215 27.978 2.767 41.99 3.843 15.688 1.204 31.397 2.155 47.109 3.002 20.863 1.125 41.737 2.075 62.61 3.038 15.577.719 31.157 1.38 46.74 1.992 18.244.716 36.49 1.379 54.738 2.009 11.288.39 22.579.68 33.869 1.005 11.79.34 23.579.688 35.37.998 13.455.355 26.91.71 40.367.995 17.622.373 35.244.739 52.867.996 26.621.39 53.244 1.009 79.865.959 99.447-.187 198.894-.564 298.341-.975 19.79-.082 39.578-.613 59.367-.966 17.456-.312 34.912-.638 52.367-1.01 13.457-.286 26.911-.694 40.369-.973 18.121-.377 36.246-.622 54.366-1.039 12.455-.286 24.906-.77 38.249-1.474z"/><path fill="#F0F0F0" d="M1436.955 1531.032c-2.606.323-5.213.928-7.819.928-367.09.042-734.178.04-1101.268.04H1.468c-.468-.444-.468-.889-.468-1.667 102.64-.333 205.279-.333 308.1-.333-.085-.642.011-1.2-.224-1.491-5.178-6.395-5.288-11.354.086-17.868 7.804-9.46 17.762-14.65 30.224-14.647 77.818.012 155.637.006 233.456.006h5.757l.267-1.113c-1.518-1.095-3.117-2.095-4.54-3.303-6.885-5.844-10.274-13.333-10.117-22.349.289-16.622.617-33.244 1.013-49.864.248-10.458.645-20.913.982-31.369.665-20.578 1.318-41.157 2.009-61.734.64-19.08 1.355-38.157 1.98-57.237.705-21.577 1.34-43.156 2.017-64.733.318-10.123.616-20.247 1.032-30.366.088-2.131.653-4.243 1.346-6.633a237.09 237.09 0 0 1 16.39 17.917c-.79 3.84-1.561 7.416-1.723 11.02-.479 10.617-.684 21.245-1.054 31.868-.642 18.414-1.35 36.827-1.99 55.241-.69 19.914-1.376 39.827-1.985 59.743-.412 13.454-.702 26.912-1.022 40.37-.352 14.79-.664 29.58-1.033 44.369-.028 1.145-.39 2.278-.554 3.423-1.5 10.465-.124 20.052 15.696 19.946 67.992-.459 135.988-.196 203.983-.196 221.15 0 442.301.005 663.451-.048 2.19 0 4.38-.77 6.875-1.034 6.615 6.538 12.968 12.888 19.22 19.335 6.852 7.064 14.716 12.37 24.384 14.786 24.516 6.128 60.78-.151 78.84-33.108 3.206.05 6.004.071 8.803.072 28.822 0 57.647-.164 86.466.145 5.262.057 10.53-4.332 11.66-8.41.872-3.147 1.043-6.54 1.165-9.836.735-19.739 1.376-39.48 2.028-59.223.68-20.574 1.324-41.15 2.01-61.723.646-19.41 1.34-38.816 1.987-58.225.686-20.574 1.342-41.149 2.007-61.723.338-10.454.656-20.908 1.002-31.361.659-19.908 1.334-39.815 1.998-59.723.67-20.074 1.33-40.15 2-60.224.664-19.907 1.34-39.815 1.999-59.723.346-10.453.662-20.907 1.002-31.36.663-20.408 1.325-40.815 2.003-61.223.656-19.741 1.34-39.482 1.994-59.223.68-20.574 1.444-41.147 1.971-61.725.486-18.947.707-37.901 1.044-56.852.024-1.332-.087-2.683.099-3.992 1.599-11.265-2.947-16.599-14.227-16.599-93.632-.001-187.263 0-281.132-.284-5.545-15.373-10.854-30.461-16.162-45.55 2.332-.056 4.663-.162 6.994-.162 103.163-.01 206.327-.012 310.183.263 13.72 3.86 22.018 15.58 21.314 29.353-.958 18.724-1.413 37.475-2.053 56.215-.369 10.785-.667 21.572-1.016 32.357-.66 20.406-1.316 40.811-2.006 61.215-.64 18.907-1.372 37.811-1.972 56.72-.726 22.9-1.334 45.806-2.039 68.708-.255 8.29-.694 16.573-.961 24.862-.702 21.737-1.34 43.476-2.034 65.213-.286 8.955-.67 17.907-.98 26.861a34219.48 34219.48 0 0 0-2.003 59.217c-.688 21.033-1.337 42.068-2.004 63.102-.668 21.071-1.319 42.144-2.016 63.214-.268 8.123-.677 16.24-.966 24.362-.69 19.405-1.361 38.811-2.012 58.217-.684 20.405-1.372 40.81-1.99 61.217-.713 23.569-1.46 47.137-1.98 70.71-.289 13.173-5.926 22.828-17.576 29.034-1.326.707-2.303 2.07-3.442 3.129-3.151.143-6.302.286-10.117.686-5.154-.716-9.645-2.529-14.138-2.537-86.417-.167-172.833-.122-259.25-.121h-3.994c5.238 2.737 10.067 4.614 14.163 7.522 11.958 8.488 13.202 15.857 5.267 27.506zM2001 1531.667c-98.033.325-196.067.317-294.509-.038.89-1.115 2.189-1.881 3.487-2.648 2.057.341 4.114.98 6.172.981 94.637.05 189.275.043 284.381.04.469.442.469.887.469 1.665z"/><path fill="#0263D1" d="M591.077 1184.963c-5.447-5.978-10.894-11.956-16.637-18.104-9.206-11.257-18.115-22.342-27.376-33.96-11.567-17.662-22.782-34.791-34.103-52.257-5.35-10.046-11.266-19.461-15.685-29.533-7.222-16.465-13.98-33.176-19.98-50.122-5.713-16.136-11.087-32.498-14.993-49.14-4.08-17.382-6.516-35.175-9.127-52.87-1.858-12.594-3.69-25.302-3.974-37.994-.433-19.383.105-38.813.96-58.19a305.393 305.393 0 0 1 3.819-36.599c3.109-18.679 6.38-37.394 10.983-55.743 4.519-18.012 10.786-35.585 16.538-53.6 5.254-12.004 9.594-24.1 15.406-35.44 9.906-19.33 20.736-38.187 31.462-57.436 7.104-10.099 13.924-20.004 21.03-30.082 16.954-19.09 32.87-38.747 50.526-56.694 14.62-14.862 31.29-27.707 47.362-41.547 9.552-6.64 18.63-13.425 28.063-19.674 40.078-26.551 83.361-46.331 129.576-60.665 9.263-2.522 18.164-4.984 27.46-7.417 54.2-12.96 108.73-16.866 163.752-11.547 20.424 1.975 40.72 5.811 60.893 9.734 38.393 7.466 75.078 20.33 110.086 37.688 17.184 8.52 33.786 18.211 50.84 27.662 17.435 12.74 34.682 25.192 52.088 37.937 2.757 2.401 5.356 4.507 7.954 6.614 16.32 16.327 33.413 31.96 48.803 49.122 36.824 41.06 65.236 87.569 86.565 138.795 5.523 15.357 10.832 30.445 16.365 46.21 2.622 9.42 5.017 18.16 7.384 27.29 2.77 14.456 5.57 28.523 8.381 43.046.515 4.22 1.047 7.981 1.517 11.75 5.156 41.342 5.242 82.673.152 124.046-6.824 55.476-21.934 108.563-47.096 158.454-11.132 22.072-24.613 42.958-37.3 64.574-4.884 6.61-9.496 13.029-13.983 19.273 4.07 3.611 7.946 6.91 11.66 10.381 4.587 4.286 9.04 8.715 13.685 13.388 10.646 10.853 15.078 23.52 11.908 38.094-1.172 5.39.313 7.826 4.53 10.761 69.758 48.566 133.219 104.568 193.522 164.291 8.552 8.47 14.281 18.201 16.105 30.223 2.397 15.798-.193 30.782-6.74 45.21-17.653 32.996-53.916 39.275-78.432 33.147-9.668-2.417-17.532-7.722-24.383-14.786-6.253-6.447-12.606-12.797-19.33-19.647-8.75-9.163-17.085-17.868-25.547-26.878-11.656-13.16-23.327-25.89-34.675-38.904-11.776-13.504-23.238-27.282-34.957-41.263-17.552-23.64-34.959-46.976-52.498-70.213-.842-1.115-3.097-2.194-4.285-1.856-9.876 2.809-19.413 1.626-29.1-2.014-15.158-8.713-25.42-22.093-36.734-34.638-1.128.798-2.353 1.626-3.538 2.509-58.992 43.973-124.415 73.809-196.482 88.72-17.37 3.593-35.032 5.78-53.014 8.555-7.726.464-14.99 1.224-22.271 1.459-14.397.465-28.802.641-43.648.842-22.437-2.301-44.595-3.465-66.393-6.905-74.417-11.744-142.57-39.56-204.24-82.804-16.175-11.341-31.26-24.236-46.977-36.721-8.713-8.38-17.295-16.456-25.877-24.532m733.806 83.125c4.128-1.628 8.489-2.833 12.342-4.958 14.952-8.247 26.707-20.064 36.081-34.176 3.92-5.9 6.88-12.437 10.278-18.685l-2.512-1.988c-2.32 2.985-4.399 6.2-7.004 8.91-6.82 7.091-13.865 13.968-20.833 20.918-3.85 3.84-7.77 7.611-11.58 11.49-5.96 6.067-11.854 12.199-18.043 18.488.165.014.33.028 1.271 0m-54.069-771.866c-17.265-14.09-34.53-28.182-52.127-42.855-21.644-15.31-44.44-28.666-68.39-40.02-50.078-23.74-102.773-38.022-157.93-43.177-31.42-2.936-62.89-2.962-94.169 1.133-19.4 2.54-38.573 6.821-58.611 10.266-8.861 2.5-17.722 5-27.35 7.487-27.402 8.437-53.833 19.24-79.175 32.663-26.974 14.287-52.587 30.646-76.66 50.506-65.697 53.78-114.04 120.112-143.644 199.772-5.884 15.835-9.984 32.333-15.317 48.893-.042.354-.083.709-.383 1.716-.017.464-.035.928-.485 2.023-13.401 55.087-16.69 110.742-9.792 167.043 7.227 58.986 24.949 114.58 53.384 166.733 14.457 26.516 31.13 51.559 50.867 74.55 0 0 .085.01.172.501.17.32.434.505 1.012 1.19 8.89 9.571 17.779 19.143 26.913 29.312 3.908 3.853 7.632 7.919 11.762 11.517 9.252 8.06 18.706 15.886 28.455 24.333 13.093 9.512 25.961 19.355 39.336 28.455 18.427 12.537 38.315 22.507 58.523 31.858 22.971 10.631 46.654 19.558 71.171 25.485 23.263 5.623 47.075 8.973 71.53 13.374 14.033.983 28.058 2.612 42.1 2.772 14.56.165 29.19-.534 43.694-1.875 17.258-1.595 34.524-3.656 51.594-6.624 30.786-5.354 60.76-14.019 89.41-26.49 18.487-8.047 36.25-17.76 55.047-26.824 8.446-5.342 16.892-10.683 26.027-16.037 20.486-13.171 39.581-28.118 57.867-45.148 17.597-16.487 34.47-33.646 49.597-53.313 11.842-17.177 23.685-34.353 35.896-52.129.976-1.515 2.02-2.991 2.919-4.552 39.576-68.713 60.217-142.764 62.575-221.973.86-28.89-1.256-57.595-5.82-86.096-3.79-23.671-9.107-47.015-16.962-70.46-6.243-15.803-12.487-31.607-18.824-48.118-13.29-29.72-29.773-57.578-49.119-83.733-14.466-19.558-30.078-38.144-48.089-55.42-2.246-2.044-4.491-4.088-7.004-6.738z"/><path fill="#ECECEC" d="M1269.888 449.076c-17.248-12.451-34.495-24.903-51.599-37.925.333-2.365.684-4.159.687-5.953.036-23.654-.132-47.309.149-70.96.06-5.068-1.252-6.363-6.344-6.357-128.596.152-257.19.123-386.254.122-10.486-.002-20.504 0-30.99 0-59.826 0-119.183 0-179.008-.002-42.488-.002-84.507 0-126.995 0-9.495.003-18.521.008-28.015.01-24.819-.007-49.17-.01-73.989-.013-37.958 0-75.448.065-112.938-.089-4.238-.017-5.696.878-5.694 5.461.115 247.433.11 494.867.026 742.3-.002 4.014.91 5.428 5.208 5.421 79.645-.131 159.29-.105 238.935-.112 11.215 17.129 22.43 34.258 33.728 51.71-107.745.322-215.573.32-323.401.315-6.387 0-6.391-.006-6.391-6.567v-843.96c0-6.476.006-6.482 6.478-6.482 246.654 0 493.309.002 739.964-.011 8.44-.001 7.569.957 7.529-7.398-.053-11.023-.277-22.045-.204-33.25.41 2.45 1.138 4.896 1.173 7.352.138 9.664.159 19.333 0 28.997-.052 3.175.833 4.416 4.205 4.374 12.83-.162 25.667-.186 38.496.011 3.67.057 4.472-1.358 4.414-4.682-.17-9.664-.104-19.332-.02-28.998.017-1.871.531-3.738.967-6.597 0 12.338.23 23.586-.112 34.816-.14 4.586 1.429 5.48 5.687 5.474 81.496-.118 162.991-.085 244.954.388.467 55.805.478 111.137.42 166.47-.003 2.045-.695 4.09-1.066 6.135z"/><path fill="#E1E1E1" d="M1710.145 1528.672c-1.465 1.076-2.764 1.842-4.124 2.938-85.806.338-171.549.358-257.292.316-3.625-.002-7.249-.583-11.324-.894 7.485-11.65 6.24-19.018-5.717-27.506-4.096-2.908-8.925-4.785-14.163-7.522h3.994c86.417-.001 172.833-.046 259.25.12 4.493.01 8.984 1.822 13.856 2.832 7.85 3.008 13.442 8.2 17.339 15.089 3.292 5.82 2.707 9.15-1.82 14.627zM1705.438 1497.979c.725-1.062 1.702-2.425 3.028-3.132 11.65-6.206 17.287-15.861 17.577-29.034.518-23.573 1.266-47.141 1.98-70.71.617-20.407 1.305-40.812 1.99-61.217.65-19.406 1.321-38.812 2.011-58.217.29-8.121.698-16.24.966-24.362.697-21.07 1.348-42.143 2.016-63.214.667-21.034 1.316-42.069 2.004-63.102.646-19.74 1.324-39.478 2.004-59.217.308-8.954.693-17.906.979-26.86.695-21.738 1.332-43.477 2.034-65.214.267-8.29.706-16.573.961-24.862.705-22.902 1.313-45.807 2.04-68.708.599-18.909 1.331-37.813 1.97-56.72.691-20.404 1.348-40.81 2.007-61.215.349-10.785.647-21.572 1.016-32.357.64-18.74 1.095-37.49 2.053-56.215.704-13.772-7.593-25.492-20.845-29.349 13.17-1.887 26.333 7.81 28.992 20.11.45 2.085.797 4.252.766 6.375-.287 19.624-.546 39.25-1.054 58.869-.51 19.756-1.302 39.504-1.96 59.256-.674 20.25-1.334 40.501-2.004 60.752-.664 20.085-1.334 40.17-1.998 60.254-.67 20.25-1.334 40.501-2.004 60.752-.664 20.085-1.341 40.17-1.995 60.254-.68 20.918-1.325 41.837-2.008 62.754-.65 19.918-1.332 39.834-1.995 59.751-.67 20.084-1.326 40.169-2.003 60.253-.655 19.417-1.344 38.834-1.99 58.252-.687 20.584-1.31 41.171-2.034 61.754-.145 4.133-.489 8.27-.973 12.378-.467 3.963 1.035 5.1 5.002 5.07 22.993-.177 45.988-.087 68.982-.088h4.912l-.004.965h-5.075c-22.828 0-45.656.09-68.482-.084-4.038-.03-5.352.961-5.433 5.224-.435 22.921-1.155 45.838-1.935 68.75-.508 14.925-1.023 29.857-2.023 44.753-.838 12.489-12.58 26.376-29.476 27.35zM1270.046 449.37c.213-2.34.905-4.384.907-6.43.06-55.332.048-110.664.05-166.465 2.118-.467 4.235-.467 7.002-.467 0 60.07 0 119.556-.003 179.508-2.6-1.639-5.199-3.745-7.956-6.146z"/><path fill="#ECECEC" d="M1836 692V241.192l1.005-.04v4.475c0 361.26.005 722.52-.075 1083.781 0 3.765-1.125 7.529-2.862 11.07.644-5.201 1.849-10.403 1.851-15.605.095-210.791.081-421.582.081-632.873zM153.993 1012V240.244h.67V1332.75l-.67.002V1012zM171.999 221.999c1.726-.335 3.453-.963 5.18-.963 257.769-.043 515.537-.044 773.306.004 2.681 0 5.362.667 7.987 1.261-37.265-.924-74.488-.123-111.703-.268-37.323-.146-74.648-.032-111.972-.032H172.47l-.47-.002z"/><path fill="#0263D1" d="M1361.958 532.102a56869.15 56869.15 0 0 0-49.226-59.645l2.047-2.271c26.635 26.572 49.773 55.425 69.905 86.953-.768.597-1.245 1.032-1.783 1.37-.538.338-1.136.58-1.81.916-6.375-9.1-12.654-18.063-19.133-27.323z"/><path fill="#F0F0F0" d="M165.004 1347.995c6.324 3.155 13.098 3.043 19.943 3.04 123.623-.055 247.246-.04 370.868-.04h6.925l.032.815c-1.276.065-2.552.186-3.828.186-127.954.01-255.909.035-383.863-.126-3.325-.005-6.647-2.049-10.025-3.506-.056-.364-.052-.369-.052-.369z"/><path fill="#0263D1" d="M1408.103 597.794c4.31 8.998 8.412 17.685 12.672 26.292 1.398 2.824.773 4.273-2.822 4.805-1.722-3.705-3.44-7.597-5.322-11.408-4.179-8.459-8.3-16.952-12.744-25.272-1.619-3.03-1.257-4.435 2.391-5.242 1.924 3.552 3.8 7.017 5.825 10.825z"/><path fill="#ECECEC" d="m1023 232 4.163-7.202 1.825 1.312c-1.795 1.867-3.59 3.734-5.687 5.745-.301.145-.3.146-.3.146zM1830.22 1343.31c.773-.53 1.307-.831 1.841-1.133l.835.803-4.45 5.056-1.24-.896c.926-1.2 1.851-2.4 3.014-3.83zM1832 230l-5.1-3.494 1.31-1.503c1.242 1.437 2.482 2.874 3.756 4.654l.034.344zM158.002 1342l-3.384-4.596 1.45-.851c.643 1.573 1.286 3.146 1.93 5.083.002.364.004.364.004.364zM964.206 228.667c-.722-.811-1.217-1.411-1.711-2.011l.87-.844 2.52 2.865c-.484.067-.968.134-1.68-.01zM164.995 224.995c-1.43 1.002-2.86 2.003-4.643 3.005-.352 0-.35.002-.35.002 1.432-1 2.864-2 4.647-3 .351-.002.346-.007.346-.007z"/><path fill="#F0F0F0" d="M164.997 1348.002c-1.309-.762-2.615-1.528-3.96-2.647-.037-.355-.041-.355-.041-.355 1.24.8 2.48 1.601 3.864 2.698.144.297.14.302.137.304z"/><path fill="#ECECEC" d="M156.389 235.878c-.33-.83-.457-1.887-.586-2.945l1.162-.002c-.125.906-.25 1.813-.576 2.947zM1835.145 234.451c.448.922.605 1.79.762 2.66l-1.052.072c0-.928 0-1.857.29-2.732zM1030.545 224.407c.35-.546.883-.878 1.415-1.21.09.245.294.686.256.708-.476.273-.988.486-1.671.502zM968.045 231.389c.245.403.24.803.236 1.202-.165-.003-.475.002-.475-.01-.022-.397-.015-.797.239-1.192zM165.003 225.003c.303-.511.604-1.025.906-1.538l.634.546c-.325.305-.65.61-1.262.95-.286.034-.281.039-.278.042zM157.999 1342c.639.453 1.28.905 1.96 1.679l.04.321c-.638-.453-1.275-.906-1.955-1.68-.042-.32-.044-.32-.045-.32zM172 222l-1.98.885c-.067-.212-.135-.423-.204-.635.53-.085 1.058-.17 1.885-.253l.3.003z"/><path fill="#E1E1E1" d="M1821.99 1350.248c.108.16.054.321.001.484-.054-.16-.108-.32-.001-.484z"/><path fill="#ECECEC" d="m159.998 227.998-.36 1.307c-.017-.352-.034-.705.156-1.18.209-.123.206-.125.204-.127zM1832 230l.76 1.055-.377.264a5.974 5.974 0 0 1-.373-1.075L1832 230zM1022.002 233.001c-.096.035-.193.07-.146.052.144-.053.146-.052.146-.052zM1021.999 233c.093-.33.279-.593.779-.896.222-.103.222-.104.222-.105-.095.327-.28.59-.776.897a1.83 1.83 0 0 1-.225.103zM160 1344c.328.094.59.28.89.78.106.22.11.22.111.218-.327-.095-.592-.28-.897-.776L160 1344zM1825.465 224.444c.061-.037-.06.037 0 0zM1825.466 1348.448c.06-.037-.06.036 0 0z"/><path fill="#F5F5F5" d="M1408.543 1704.66c-12.897.55-25.348 1.033-37.803 1.32-18.12.416-36.245.661-54.366 1.038-13.458.28-26.912.687-40.37.973-17.454.372-34.91.698-52.366 1.01-19.789.353-39.577.884-59.367.966-99.447.411-198.894.788-298.341.975-26.621.05-53.244-.57-79.865-.959-17.623-.257-35.245-.623-52.867-.996-13.457-.284-26.912-.64-40.368-.995-11.79-.31-23.58-.658-35.37-.998-11.29-.325-22.58-.616-33.868-1.005-18.248-.63-36.494-1.293-54.738-2.01a6800.722 6800.722 0 0 1-46.74-1.991c-20.873-.963-41.747-1.913-62.61-3.038-15.712-.847-31.421-1.798-47.109-3.002-14.012-1.076-27.988-2.628-41.99-3.843-9.402-.816-18.84-1.226-28.23-2.149-13.815-1.357-27.62-2.856-41.395-4.579-12.786-1.599-25.625-3.064-38.256-5.533-10.658-2.084-21.119-5.306-31.508-8.535-2.257-.702-3.835-3.584-5.726-5.462 2.149-1.969 3.987-4.96 6.502-5.727 10.105-3.08 20.29-6.28 30.684-7.945 20.385-3.264 40.906-5.738 61.417-8.14 14.45-1.69 28.967-2.862 43.474-4.013 18.649-1.478 37.313-2.77 55.979-4.016 16.364-1.093 32.734-2.122 49.112-2.982 21.197-1.113 42.403-2.067 63.608-3.02a5845.595 5845.595 0 0 1 48.24-1.99c19.91-.731 39.824-1.358 59.737-2.02 10.29-.342 20.578-.727 30.87-.98 15.954-.391 31.911-.668 47.866-1.028 13.457-.304 26.911-.758 40.37-.964 26.62-.409 53.241-.885 79.864-.993 102.613-.415 205.226-.769 307.84-.971 23.121-.046 46.244.578 69.365.953 17.29.281 34.58.64 51.868.997 14.956.308 29.914.592 44.868 1.01 21.58.604 43.16 1.283 64.737 1.999 18.415.61 36.828 1.276 55.238 1.998 15.416.604 30.83 1.288 46.24 2.006 13.083.609 26.164 1.264 39.24 1.995 17.04.952 34.078 1.938 51.11 3.023 14.21.905 28.424 1.796 42.61 3.015a2389.766 2389.766 0 0 1 50.85 4.94c20.54 2.208 41.146 4.072 61.546 7.232 13.828 2.143 27.367 6.191 40.987 9.583 1.788.446 3.484 1.845 4.882 3.164 3.296 3.11 3.182 5.369-.94 7.15-6.052 2.618-12.247 5.48-18.665 6.574-22.464 3.83-44.998 7.345-67.604 10.208-18.037 2.284-36.206 3.559-54.335 5.071a3422.889 3422.889 0 0 1-53.479 4.019 3034.06 3034.06 0 0 1-50.109 2.978c-21.864 1.118-43.737 2.073-65.61 3.032-16.41.72-32.826 1.325-49.239 2.008-1.812.075-3.616.324-5.87.646z"/><path fill="#FEFEFE" d="M1593.866 1450.93c6.139-14.466 8.729-29.45 6.332-45.248-1.824-12.022-7.553-21.753-16.105-30.223-60.303-59.723-123.764-115.725-193.522-164.29-4.217-2.936-5.702-5.371-4.53-10.762 3.17-14.574-1.262-27.241-11.901-38.522-.217-2.22-.046-3.777-.437-5.179-3.497-12.558-7.093-25.088-10.66-37.626 12.415-21.425 25.896-42.311 37.028-64.383 25.162-49.891 40.272-102.978 47.096-158.454 5.09-41.373 5.004-82.704-.152-124.046-.47-3.769-1.002-7.53-1.157-11.585.834.75 1.485 1.747 1.779 2.84 6.887 25.595 13.663 51.22 20.61 76.8 7.252 26.703 14.636 53.37 22.012 80.04 5.647 20.416 11.4 40.804 17.054 61.218 8.486 30.642 16.929 61.296 25.384 91.947 5.327 19.312 10.633 38.631 15.967 57.942 6.569 23.786 13.178 47.56 19.73 71.35 6.113 22.195 12.13 44.417 18.268 66.605 9.45 34.162 18.976 68.302 28.452 102.457 4.343 15.654 8.71 31.302 12.907 46.994.893 3.337 2.516 4.39 5.967 4.284 8.823-.268 17.66-.066 26.492-.097 6.37-.022 12.723-5.415 13.415-11.712.598-5.429.875-10.901 1.083-16.362.72-18.91 1.37-37.823 2.005-56.736.697-20.744 1.344-41.49 2.018-62.235.324-9.956.662-19.911.992-29.867.67-20.245 1.336-40.49 2.008-60.736.325-9.79.647-19.58.996-29.368.656-18.412 1.381-36.821 1.984-55.235.723-22.076 1.329-44.157 2.021-66.235.64-20.412 1.32-40.823 2-61.235.652-19.579 1.34-39.156 1.992-58.735.68-20.412 1.315-40.825 2.011-61.235.634-18.58 1.456-37.154 1.95-55.737.505-18.95.691-37.907 1.07-56.86.063-3.113.988-6.316.503-9.313-1.404-8.663-7.862-13.384-17.623-13.385-78.319-.01-156.637.002-234.956-.047-2.268-.002-4.535-.617-6.803-.946-2.396-8.741-4.791-17.483-7.175-26.617 93.643-.393 187.274-.394 280.906-.393 11.28 0 15.826 5.334 14.227 16.599-.186 1.309-.075 2.66-.099 3.992-.337 18.95-.558 37.905-1.044 56.852-.527 20.578-1.291 41.15-1.971 61.725-.653 19.741-1.338 39.482-1.994 59.223-.678 20.408-1.34 40.815-2.003 61.223-.34 10.453-.656 20.907-1.002 31.36-.66 19.908-1.335 39.816-2 59.723-.669 20.075-1.33 40.15-1.999 60.224-.664 19.908-1.34 39.815-1.998 59.723-.346 10.453-.664 20.907-1.002 31.36-.665 20.575-1.321 41.15-2.007 61.724-.646 19.409-1.34 38.816-1.987 58.225-.686 20.574-1.33 41.15-2.01 61.723-.652 19.742-1.293 39.484-2.028 59.223-.122 3.297-.293 6.689-1.165 9.836-1.13 4.078-6.398 8.467-11.66 8.41-28.82-.31-57.644-.144-86.466-.145-2.799 0-5.597-.022-8.803-.072zM590.778 1185.216c8.881 7.823 17.463 15.9 26.149 24.759-.238 6.571-.692 12.355-.901 18.147-.721 19.902-1.357 39.807-2.024 59.712-.667 19.904-1.42 39.807-1.972 59.714-.465 16.779-.676 33.563-1.061 50.344-.046 1.966-.47 3.926-.752 5.884-1.45 10.049 3.669 19.243 15.69 19.24 108.607-.027 217.215-.016 325.822-.016h6.235c-.146-2.041-.025-3.384-.362-4.6-5.269-18.993-10.637-37.959-15.893-56.956-2.337-8.446-4.473-16.948-6.701-25.425 14.402-.295 28.807-.47 43.204-.936 7.28-.235 14.545-.995 22.284-1.014 3.41 12.207 6.208 23.947 9.327 35.603 4.322 16.153 9.012 32.208 13.25 48.382 1.026 3.915 2.663 5.056 6.735 5.05 98.084-.134 196.168-.104 294.253-.104h6.16c-.428-2.784-.542-4.876-1.088-6.85-2.288-8.276-4.787-16.496-7.059-24.777-5.252-19.144-10.408-38.315-15.622-57.47-5.566-20.447-11.181-40.881-16.661-61.351-.302-1.127.441-2.534.698-3.81 9.449 3.376 18.986 4.559 28.862 1.75 1.188-.338 3.443.74 4.285 1.856 17.54 23.237 34.946 46.574 52.201 70.42a425.604 425.604 0 0 0 5.148 21.896c4.716 17.91 9.556 35.787 14.239 53.706.893 3.419 2.537 4.773 6.264 4.72 14.8-.209 29.603-.068 44.406-.057 8.334 8.705 16.668 17.41 25.112 26.427-2.08.722-4.269 1.491-6.459 1.492-221.15.053-442.3.049-663.45.048-67.996 0-135.992-.263-203.984.196-15.82.106-17.197-9.48-15.696-19.946.165-1.145.526-2.278.554-3.423.369-14.79.681-29.58 1.033-44.37.32-13.457.61-26.915 1.022-40.369.61-19.916 1.294-39.83 1.985-59.743.64-18.414 1.348-36.827 1.99-55.241.37-10.623.575-21.251 1.054-31.868.162-3.604.932-7.18 1.723-11.02z"/><path fill="#007CFF" d="M1207.09 1223.914c-8.447 5.341-16.893 10.682-25.707 15.624.293-9.315 1.37-18.223 1.537-27.148.492-26.41-.665-52.701-6.932-78.543-4.126-17.011-10.489-32.823-22.815-45.745-9.743-10.214-21.891-15.74-35.618-16.958-21.659-1.924-42.146 3.419-61.907 11.986-6.07 2.631-11.557 4.496-18.61.654-22.053-12.012-45.628-18.016-71.108-15.907-25.032 2.071-43.307 14.59-56.32 35.203-8.094 12.822-12.961 27.104-16.22 41.98-4.156 18.971-7.548 37.993-7.41 57.502.067 9.25-.109 18.504.07 27.752.098 5.126.14 10.36 1.178 15.344 3.707 17.803 7.829 35.52 11.794 53.27-23.57-4.35-47.383-7.7-70.646-13.323-24.517-5.927-48.2-14.854-71.17-25.485-20.209-9.351-40.097-19.32-58.524-31.858-13.375-9.1-26.243-18.943-39.346-29.03 2.848-5.794 5.707-11.014 8.678-16.58 3.682-6.124 7.686-11.682 10.747-17.717 14.43-28.453 28.611-57.031 42.861-85.575 8.39-16.806 16.767-33.608 20.424-52.282 5.783-29.535 4.197-58.92-1.66-88.215-2.464-12.328-5.21-24.6-7.968-37.559-12.263 6.742-21.545 15.798-31.133 25.984-1.432-28.629 2.68-55.776 6-82.971l-1.404-.737-23.755 20.848c4.859-39.248 15.753-75.444 34.237-109.504 5.778.405 11.164 1.255 16.537 1.18 23.739-.337 47.473-.94 71.64-1.364 2.77.01 5.11-.06 7.857-.024 1.799-.008 3.188-.124 5.018-.174 25.097-.485 49.752-1.037 74.416-1.589.134-1.928.238-3.41.798-4.911 13.563-.354 26.667-.774 39.774-1.007 23.252-.414 46.507-.984 69.76-.966 14.744.012 21.584-8.564 20.794-22.793-.853-15.386-1.301-30.795-1.466-46.28 11.084-.317 21.708-.554 32.333-.782 13.117-.283 26.235-.579 39.353-.833 21.251-.412 42.503-.794 63.813-.843 1.442 3.06 2.826 5.774 4.21 8.487l1.493-.018c1.112-2.977 2.224-5.955 3.796-9.015 6.472-.05 12.483-.018 18.453.428-.563 5.475-1.085 10.536-1.72 16.018-.805 6.371-1.81 12.31-2.043 18.28-.098 2.523.803 5.591 2.33 7.583 5.367 6.995 11.19 13.642 16.865 20.4 14.549 17.33 27.566 35.603 33.136 57.982 2.731 10.975 4.52 22.185 6.736 33.288l-1.407.26-10.815-12.043-1.306.833c9.157 19.074 11.215 39.341 10.02 60.701l-13.909-15.008c2.546 19.173 3.839 37.746.014 57.417-5.045-11.436-10.176-21.594-19.141-29.642-3.731 7.573-7.298 14.662-10.734 21.814-10.834 22.555-25.086 41.96-48.298 53.352-1.326.651-2.461 3.012-2.556 4.642-.81 13.945 1.349 27.522 5.545 40.816 6.882 21.807 18.118 41.467 30.803 60.216 20.22 29.885 29.378 62.989 30.926 98.612.307 7.073.804 14.138 1.153 21.433-.062.227-.213.672-.522.904-.31 1.781-.311 3.33-.439 5.052-.126.174.025.575-.124.902-.132.8-.116 1.273-.2 2.191-.788 8.126-1.477 15.808-2.166 23.49m-98.136-438.639c2.487-5.02 5.746-9.81 7.31-15.103 3.85-13.035-2.675-22.541-16.182-23.896-7.747-.776-15.615-1.189-23.375-.771-8.051.433-16.212 1.383-24.002 3.372-7.308 1.866-10.174 8.045-9.153 15.549 1.156 8.504 7.117 13.576 12.127 19.185-1.978.044-3.974.28-5.931.099-9.05-.837-18.113-2.713-27.124-2.465-11.012.303-22.086 1.756-32.939 3.76-28.805 5.32-46.06 30.921-43.82 60.08 1.523 19.836 11.734 34.835 26.086 46.976 18.047 15.265 38.186 27.507 60.374 36.08 20.397 7.88 41.277 13.425 63.378 12.84 6.625-.175 13.249-.521 19.86-.97 27.78-1.884 49.255-15.024 64.514-37.838 14.02-20.963 22.571-43.95 20.888-69.745-1.134-17.398-8.558-31.136-24.336-39.585-10.158-5.44-21.187-7.72-32.578-7.763-11.782-.045-23.566.544-35.097.195m22.85-54.71c7.538-3.096 13.428-8.227 18.67-14.396 9.644-11.349 9.73-11.685-1.415-21.578-13.227-11.743-31.34-11.384-43.765.404-4.22 4.003-5.349 8.655-3.987 13.555 1.396 5.028 3.553 10.116 6.524 14.378 5.699 8.177 13.99 10.61 23.974 7.638z"/><path fill="#F5F5F5" d="M512.96 1080.642c-79.538.344-159.183.318-238.828.45-4.298.006-5.21-1.408-5.208-5.422.085-247.433.09-494.867-.026-742.3-.002-4.583 1.456-5.478 5.694-5.46 37.49.153 74.98.088 112.938.51.668 1.89.692 3.41 1.096 4.822 3 10.494 6.178 20.938 9.107 31.451 6.532 23.45 12.873 46.952 19.446 70.39 4.461 15.908 9.307 31.71 13.767 47.62 9.292 33.15 18.413 66.348 27.662 99.511 6.762 24.245 13.6 48.469 20.49 72.677.247.87 1.414 1.479 2.152 2.21-5.5 17.765-11.767 35.338-16.286 53.35-4.603 18.349-7.874 37.064-10.983 55.743a305.393 305.393 0 0 0-3.819 36.599c-.855 19.377-1.393 38.807-.96 58.19.283 12.692 2.116 25.4 3.974 37.995 2.611 17.694 5.047 35.487 9.127 52.869 3.906 16.642 9.28 33.004 14.993 49.14 6 16.946 12.758 33.657 19.98 50.122 4.419 10.072 10.335 19.487 15.685 29.533z"/><path fill="#FBFBFB" d="M497.85 720.521c4.924-16.192 9.024-32.69 14.908-48.525 29.604-79.66 77.947-145.991 144.334-199.8 2.055 4.307 3.474 8.627 4.773 12.982 1.352 4.533 2.055 4.669 5.858 1.652 5.442-4.319 10.843-8.733 16.601-12.6 13.443-9.031 26.913-18.045 40.688-26.552 27.392-16.916 56.928-29.234 87.45-39.164 4.81-1.565 5.131-3.744 4.004-7.578-1.162-3.954-2.309-7.911-3.462-11.867 8.86-2.5 17.722-5.001 27.322-7.255 2.854 5.74 4.967 11.234 7.245 17.155 3.976-1.014 7.722-2.243 11.567-2.899 10.572-1.804 21.185-3.371 31.784-5.025 4.374-.682 8.732-1.6 13.134-1.949 5.152-.408 10.355-.152 15.517-.48 5.755-.364 11.483-1.438 17.234-1.538 12.57-.218 25.175-.511 37.715.16 11.846.635 23.634 2.42 35.437 3.787 5.907.685 11.858 1.24 17.67 2.436 9.346 1.923 18.616 4.24 27.877 6.552 11.352 2.834 22.802 5.39 33.949 8.897 9.937 3.126 19.61 7.165 29.231 11.202 10.719 4.496 21.44 9.066 31.806 14.303 10.504 5.308 20.716 11.239 30.797 17.325 9.56 5.771 18.78 12.104 28.16 18.176 3.168 2.051 6.366 4.058 9.77 6.195.489.31.675.571.724 1.308-.349 2.536-.894 4.656-.904 6.779-.071 16.498-.039 32.997-.039 49.496 0 34.497.007 68.994-.006 103.491-.003 6.447-.392 6.804-6.77 6.814-4.166.006-8.336-.113-12.498.033-4.143.146-8.194.24-11.45-3.405.063-.83.19-1.297.43-1.964.208-.504.22-.81.066-1.55.514-9.072 1.062-17.717 1.716-26.353 2.363-31.225-4.679-60.54-18.503-88.301-6.294-12.64-8.942-12.974-21.31-6.48-33.595 17.64-61.523 41.919-84.533 71.955-2.22 2.9-4.048 3.717-7.83 2.548-7.599-2.35-15.4-4.543-23.273-5.43-32.142-3.616-64.387-4.819-96.741-3.286-33.92 1.606-67.243 6.336-99.423 17.555-3.145 1.097-5.516.93-8.353-.752-22.45-13.315-40.934-31.378-59.07-49.74-10.403-10.532-19.428-22.423-29.817-32.968-4.89-4.962-11.185-8.902-17.482-12.011-6.23-3.077-10.317-1.431-14.013 4.517-2.602 4.188-4.741 8.821-6.206 13.53-7.095 22.796-7.464 46.183-5.515 69.73 1.467 17.732 6.945 34.515 11.614 51.38-4.748.331-9.036.934-13.325.95-24.49.093-48.982-.05-73.472.14-4.059.031-8.27.816-12.132 2.097-11.56 3.835-18.566 11.967-20.053 24.095-.895 7.296-.967 14.72-1.004 22.088-.121 24.114-1.187 48.167-2.876 72.233-1.474 21.016-1.474 42.135-2.176 63.207-.627 18.823-1.357 37.643-1.98 56.466-.707 21.405-1.327 42.813-2.018 64.218-.64 19.849-1.358 39.695-1.98 59.545-.709 22.57-1.342 45.143-2.03 67.714-.05 1.694-.276 3.383-.42 5.074l-1.296.408c-.888-1.014-1.995-1.909-2.625-3.063-2.21-4.05-4.21-8.216-6.375-12.293-7.086-13.34-14.73-26.414-21.198-40.047-10.204-21.51-18.612-43.768-25.077-66.721-.89-3.16-2.227-6.207-2.958-9.398-1.94-8.472-3.652-16.996-5.475-25.495-1.507-7.03-3.413-14-4.468-21.097-1.234-8.289-1.767-16.683-2.547-25.038-.882-9.444-2.46-18.9-2.39-28.34.148-19.677 1.101-39.35 1.91-59.016.196-4.76 1.286-9.477 1.671-14.238.606-7.49 2.15-15.169 1.125-22.463-1.28-9.107-4.701-17.922-7.357-26.816-.363-1.214-1.644-2.153-2.5-3.22.016-.464.034-.928.363-1.912.369-.868.425-1.216.48-1.564z"/><path fill="#F0F0F0" d="M1437.117 717.401c2.297-.06 4.564.556 6.832.558 78.319.05 156.637.036 234.956.047 9.76.001 16.219 4.722 17.623 13.385.485 2.997-.44 6.2-.502 9.313-.38 18.953-.566 37.91-1.07 56.86-.495 18.583-1.317 37.157-1.95 55.737-.697 20.41-1.332 40.823-2.012 61.235-.653 19.579-1.34 39.156-1.992 58.735-.68 20.412-1.36 40.823-2 61.235-.692 22.078-1.298 44.159-2.02 66.235-.604 18.414-1.329 36.823-1.985 55.235-.35 9.789-.67 19.578-.996 29.368-.672 20.245-1.338 40.49-2.008 60.736-.33 9.956-.668 19.911-.992 29.867-.674 20.745-1.321 41.491-2.018 62.235-.635 18.913-1.285 37.826-2.005 56.736-.208 5.461-.485 10.933-1.083 16.362-.692 6.297-7.045 11.69-13.415 11.712-8.832.03-17.669-.171-26.492.097-3.45.105-5.074-.947-5.967-4.284-4.197-15.692-8.564-31.34-12.907-46.994-9.476-34.155-19.002-68.295-28.452-102.457-6.138-22.188-12.155-44.41-18.268-66.605-6.552-23.79-13.161-47.564-19.73-71.35-5.334-19.311-10.64-38.63-15.967-57.942-8.455-30.65-16.898-61.305-25.384-91.947-5.654-20.414-11.407-40.802-17.054-61.218-7.376-26.67-14.76-53.337-22.012-80.04-6.947-25.58-13.723-51.205-20.61-76.8-.294-1.093-.945-2.09-1.79-3.296-3.16-14.232-5.96-28.3-8.73-42.755z"/><path fill="#FCFCFC" d="M1210.602 1191.148c-.41-7.07-.907-14.134-1.214-21.207-1.548-35.623-10.706-68.727-30.926-98.612-12.685-18.749-23.92-38.41-30.803-60.216-4.196-13.294-6.356-26.871-5.545-40.816.095-1.63 1.23-3.991 2.556-4.642 23.212-11.393 37.464-30.797 48.298-53.352 3.436-7.152 7.003-14.241 10.734-21.814 8.965 8.048 14.096 18.206 19.141 29.642 3.825-19.671 2.532-38.244-.014-57.417l13.908 15.008c1.196-21.36-.862-41.627-10.019-60.701l1.306-.833 10.815 12.042 1.407-.259c-2.216-11.103-4.005-22.313-6.736-33.288-5.57-22.379-18.587-40.652-33.136-57.982-5.675-6.758-11.498-13.405-16.865-20.4-1.527-1.992-2.428-5.06-2.33-7.584.232-5.969 1.238-11.908 2.49-18.283 63.82-.432 127.08-.439 190.808-.443 6.765.33 13.061.658 19.358.985 7.87 22.7 13.186 46.043 16.977 69.714 4.564 28.5 6.68 57.205 5.82 86.096-2.358 79.209-23 153.26-62.575 221.973a26.197 26.197 0 0 1-3.338 4.583c-2.388-7.362-4.357-14.754-6.62-23.246-1.683 2.288-2.7 3.533-3.568 4.873-9.795 15.115-19.614 30.215-29.278 45.413-1.037 1.63-1.904 4.012-1.539 5.773 1.373 6.623 3.288 13.133 5 19.685-14.6 19.267-31.472 36.426-49.696 52.878-2.597-5.834-4.567-11.632-6.517-17.37-.725.116-1.133.057-1.341.233-11.57 9.8-23.035 19.727-34.728 29.377-4.07 3.358-8.7 6.034-13.076 9.02a5.814 5.814 0 0 1 .179-1.82c.34-.61.321-.811.171-1.002.002-1.548.003-3.097.434-4.957.648-.546.658-.793.462-1.051z"/><path fill="#2689FF" d="M899.464 1298.953c-4.407-17.775-8.53-35.492-12.236-53.295-1.038-4.984-1.08-10.218-1.178-15.344-.179-9.248-.003-18.502-.07-27.752-.138-19.509 3.254-38.531 7.41-57.503 3.259-14.875 8.126-29.157 16.22-41.979 13.013-20.612 31.288-33.132 56.32-35.203 25.48-2.109 49.055 3.895 71.107 15.907 7.054 3.842 12.54 1.977 18.61-.654 19.762-8.567 40.25-13.91 61.908-11.986 13.727 1.218 25.875 6.744 35.618 16.958 12.326 12.922 18.69 28.734 22.815 45.745 6.267 25.842 7.424 52.133 6.932 78.543-.166 8.925-1.244 17.833-1.892 27.197-18.074 9.416-35.837 19.128-54.325 27.176-28.648 12.47-58.623 21.135-89.41 26.489-17.069 2.968-34.335 5.029-51.593 6.624-14.504 1.341-29.133 2.04-43.694 1.875-14.042-.16-28.067-1.789-42.542-2.798z"/><path fill="#F9F9FA" d="M715.964 754.942c-18.085 34.042-28.98 70.238-33.838 109.486l23.755-20.848 1.404.737c-3.32 27.195-7.432 54.342-6 82.971 9.588-10.186 18.87-19.242 31.133-25.984 2.759 12.96 5.504 25.231 7.969 37.56 5.856 29.293 7.442 58.679 1.659 88.214-3.657 18.674-12.033 35.476-20.424 52.282-14.25 28.544-28.431 57.122-42.861 85.575-3.061 6.035-7.065 11.593-11.088 17.679-6.026-4.334-11.876-8.686-17.114-13.68-9.429-8.99-18.48-18.375-27.723-27.56-.848-.843-1.94-1.439-3.951-2.9v24.885c-8.89-9.571-17.78-19.143-26.868-29.25-.369-.81-.603-1.014-.9-1.146 0 0-.085-.008-.076-.463 1.228-11.844 2.377-23.213-1.109-34.473-.67-2.167-1.565-5-.733-6.758 2.477-5.23.652-10.397.811-15.573.298-9.683.714-19.363.977-29.048.387-14.277.64-28.56 1.08-42.835.048-1.572 1.11-3.087 1.4-4.683.32-1.763.6-3.633.358-5.382-.739-5.303-2.447-10.576-2.41-15.85.03-4.132 2.263-8.211 3.202-12.384.684-3.04 1.307-6.216 1.167-9.295-.359-7.907-1.259-15.788-1.741-23.692-.251-4.12-.148-8.266-.072-12.397.063-3.411.416-6.817.466-10.228.043-2.971-.434-5.97-.18-8.913.304-3.54 1.19-7.027 1.729-10.552.596-3.904 1.292-7.81 1.563-11.74.333-4.83 2.704-10.23-4.086-13.219-2.66-1.17-1.955-5.958.53-8.021 1.173-.974 2.71-2.283 2.86-3.581.633-5.463.922-10.976 1.123-16.478.414-11.345.71-22.694 1.02-34.043.354-13.024.656-26.05 1.026-39.075.046-1.632.545-3.257.53-4.883-.078-7.758-2.052-16.033.004-23.155 3.29-11.393 1.004-22.666 2.064-33.93.85-9.042 5.904-15.308 14.89-15.31 30.476-.004 60.953.002 91.452.466.694 17.786 1.555 35.106 1.93 52.436.125 5.728 1.139 10.777 5.072 15.038z"/><path fill="#F0F0F0" d="M934.564 1335.925c2.672 8.571 4.808 17.073 7.145 25.52 5.256 18.996 10.624 37.962 15.893 56.956.337 1.215.216 2.558.362 4.599h-6.235c-108.607 0-217.215-.011-325.822.016-12.021.003-17.14-9.191-15.69-19.24.283-1.958.706-3.918.752-5.884.385-16.78.596-33.565 1.061-50.344.552-19.907 1.305-39.81 1.972-59.714.667-19.905 1.303-39.81 2.024-59.712.21-5.792.663-11.576 1.032-17.844 15.613 11.702 30.698 24.597 46.873 35.938 61.67 43.244 129.823 71.06 204.24 82.804 21.798 3.44 43.956 4.604 66.393 6.905zM1290.25 1268.478c-.018 1.54-.76 2.947-.46 4.074 5.48 20.47 11.096 40.904 16.662 61.351 5.214 19.155 10.37 38.326 15.622 57.47 2.272 8.281 4.771 16.5 7.06 24.778.545 1.973.66 4.065 1.087 6.849h-6.16c-98.085 0-196.169-.03-294.253.105-4.072.005-5.71-1.136-6.735-5.05-4.238-16.175-8.928-32.23-13.25-48.383-3.119-11.656-5.918-23.396-8.873-35.544 17.515-3.28 35.176-5.466 52.547-9.06 72.067-14.91 137.49-44.746 196.482-88.72 1.185-.882 2.41-1.71 3.538-2.508 11.313 12.545 21.576 25.925 36.733 34.638z"/><path fill="#FFF" d="M481.502 656.852c-.99-.482-2.157-1.09-2.404-1.961a14233.831 14233.831 0 0 1-20.49-72.677c-9.249-33.163-18.37-66.361-27.662-99.512-4.46-15.91-9.306-31.71-13.767-47.62-6.573-23.437-12.914-46.94-19.446-70.389-2.93-10.513-6.107-20.957-9.107-31.451-.404-1.412-.428-2.932-.628-4.822 24.352-.419 48.702-.416 73.525.01.674 1.89.705 3.406 1.104 4.818 5.707 20.212 11.494 40.402 17.2 60.615 4.805 17.02 9.493 34.075 14.3 51.096 5.607 19.863 11.28 39.708 16.937 59.558 5.666 19.886 11.347 39.768 17.022 59.651-10.442 19.056-21.272 37.912-31.178 57.242-5.812 11.342-10.152 23.437-15.406 35.442zM490.002 328.002c42.02-.001 84.039-.003 126.68.346 2.507 6.333 4.55 12.27 6.254 18.303 6.883 24.372 13.71 48.76 20.442 73.175 1.445 5.241 2.412 10.615 3.599 15.928-15.762 13.738-32.432 26.583-47.051 41.445-17.655 17.947-33.572 37.604-50.855 56.523-1.22-1.141-2.045-2.221-2.4-3.438a3930.968 3930.968 0 0 1-9.83-34.342c-3.365-11.97-6.583-23.983-9.983-35.943-6.607-23.24-13.33-46.446-19.935-69.685-2.354-8.28-4.5-16.62-6.756-24.928-3.382-12.463-6.776-24.922-10.165-37.384z"/><path fill="#F6F6F6" d="M708.939 687.007c-30.476-.003-60.953-.009-91.43-.005-8.985.002-14.039 6.268-14.89 15.31-1.059 11.264 1.227 22.537-2.063 33.93-2.056 7.122-.082 15.397-.005 23.155.016 1.626-.483 3.251-.53 4.883-.37 13.024-.67 26.05-1.026 39.075-.31 11.349-.605 22.698-1.02 34.043-.2 5.502-.489 11.015-1.122 16.478-.15 1.298-1.687 2.607-2.86 3.58-2.485 2.064-3.19 6.851-.53 8.022 6.79 2.988 4.419 8.389 4.086 13.218-.27 3.932-.967 7.837-1.563 11.74-.538 3.526-1.425 7.013-1.73 10.553-.253 2.943.224 5.942.18 8.913-.049 3.41-.402 6.817-.465 10.228-.076 4.131-.18 8.278.072 12.397.482 7.904 1.382 15.785 1.741 23.692.14 3.08-.483 6.255-1.167 9.295-.94 4.173-3.172 8.252-3.201 12.384-.038 5.274 1.67 10.547 2.409 15.85.243 1.749-.039 3.619-.359 5.382-.29 1.596-1.351 3.111-1.4 4.683-.439 14.276-.692 28.558-1.08 42.835-.262 9.685-.678 19.365-.976 29.048-.16 5.176 1.666 10.344-.81 15.573-.833 1.757.061 4.591.732 6.758 3.486 11.26 2.337 22.629 1.121 34.432-19.758-22.496-36.431-47.54-50.888-74.055-28.435-52.152-46.157-107.747-53.384-166.733-6.899-56.3-3.609-111.956 10.008-167.358 1.074.75 2.355 1.69 2.718 2.904 2.656 8.894 6.078 17.709 7.357 26.816 1.024 7.294-.519 14.972-1.125 22.463-.385 4.76-1.475 9.478-1.67 14.238-.81 19.666-1.763 39.34-1.91 59.016-.07 9.44 1.507 18.896 2.39 28.34.78 8.355 1.312 16.75 2.546 25.038 1.055 7.097 2.96 14.066 4.468 21.097 1.823 8.499 3.534 17.023 5.475 25.495.73 3.19 2.068 6.237 2.958 9.398 6.465 22.953 14.873 45.211 25.077 66.72 6.467 13.634 14.112 26.707 21.198 40.048 2.165 4.077 4.164 8.242 6.375 12.293.63 1.154 1.737 2.049 2.625 3.063l1.296-.408c.144-1.691.37-3.38.42-5.074.688-22.571 1.321-45.144 2.03-67.714.622-19.85 1.34-39.696 1.98-59.545.691-21.405 1.311-42.813 2.019-64.218.622-18.823 1.352-37.643 1.98-56.466.701-21.072.7-42.19 2.175-63.207 1.689-24.066 2.755-48.119 2.876-72.233.037-7.368.11-14.792 1.004-22.088 1.487-12.128 8.493-20.26 20.053-24.095 3.861-1.28 8.073-2.066 12.132-2.097 24.49-.19 48.981-.047 73.472-.14 4.29-.016 8.577-.619 13.51-.666 4.038 10.073 7.43 19.86 10.789 30.024-.962 1.293-1.73 2.619-2.844 3.053-5.006 1.947-8.015 5.475-9.224 10.639z"/><path fill="#F5F5F5" d="M647.288 435.652c-1.498-5.211-2.465-10.585-3.91-15.826a12280.538 12280.538 0 0 0-20.442-73.175c-1.704-6.033-3.747-11.97-5.786-18.3 59.204-.348 118.56-.349 178.392.044 2.274 6.734 3.988 13.1 5.918 19.401.796 2.6 2.055 5.056 3.104 7.578-45.852 14.273-89.135 34.053-129.213 60.604-9.433 6.25-18.511 13.034-28.063 19.674zM826.995 328.006c128.595-.002 257.19.027 385.786-.125 5.092-.006 6.404 1.29 6.344 6.358-.281 23.65-.113 47.305-.15 70.959-.002 1.794-.353 3.588-.874 5.664-17.197-8.88-33.8-18.571-50.983-27.09-35.008-17.358-71.693-30.223-110.086-37.69-20.173-3.922-40.469-7.758-60.893-9.733-55.022-5.32-109.552-1.414-163.76 11.156-2.062-6.78-3.723-13.14-5.384-19.499z"/><path fill="#FEFEFE" d="M1278.092 503.515c17.737 16.72 33.35 35.306 47.815 54.864 19.346 26.155 35.828 54.014 48.88 84.41-6.088.856-11.938 1.034-18.256 1.212-26.492 0-52.517-.001-78.539-.47-.011-38.837-.025-77.205-.03-116.039.048-8.303.089-16.14.13-23.977z"/><path fill="#F6F6F6" d="M1219 476.001c-3.185-2.027-6.383-4.034-9.552-6.085-9.379-6.072-18.599-12.405-28.159-18.176-10.08-6.086-20.293-12.017-30.797-17.325-10.366-5.237-21.087-9.807-31.806-14.303-9.621-4.037-19.294-8.076-29.231-11.202-11.147-3.507-22.597-6.063-33.949-8.897-9.261-2.312-18.53-4.629-27.877-6.552-5.812-1.195-11.763-1.751-17.67-2.436-11.803-1.368-23.59-3.152-35.437-3.787-12.54-.671-25.145-.378-37.715-.16-5.751.1-11.48 1.174-17.234 1.539-5.162.327-10.365.07-15.517.479-4.402.349-8.76 1.267-13.134 1.95-10.599 1.653-21.212 3.22-31.784 5.024-3.845.656-7.591 1.885-11.567 2.899-2.278-5.921-4.391-11.415-6.863-17.127 18.917-3.719 38.09-8 57.49-10.54 31.279-4.095 62.75-4.069 94.168-1.133 55.158 5.155 107.853 19.437 157.932 43.178 23.949 11.353 46.745 24.71 68.548 40.734.158 7.783.156 14.852.154 21.92z"/><path fill="#F5F5F5" d="M489.534 328c3.857 12.464 7.251 24.923 10.633 37.386 2.255 8.309 4.402 16.647 6.756 24.928 6.606 23.24 13.328 46.446 19.935 69.685 3.4 11.96 6.618 23.972 9.983 35.943a3930.968 3930.968 0 0 0 9.83 34.342c.355 1.217 1.18 2.297 2.114 3.61-6.491 10.077-13.311 19.982-20.415 30.08-5.959-19.69-11.64-39.571-17.306-59.457-5.657-19.85-11.33-39.695-16.938-59.558-4.806-17.021-9.494-34.075-14.3-51.096-5.705-20.213-11.492-40.403-17.199-60.615-.399-1.412-.43-2.928-.636-4.815 9.022-.424 18.048-.43 27.543-.432zM812.62 389.062c1.537 3.963 2.684 7.92 3.846 11.874 1.127 3.834.805 6.013-4.004 7.578-30.522 9.93-60.058 22.248-87.45 39.164-13.775 8.507-27.245 17.52-40.688 26.551-5.758 3.868-11.16 8.282-16.601 12.6-3.803 3.018-4.506 2.882-5.858-1.651-1.299-4.355-2.718-8.675-4.452-13.086 23.062-19.728 48.675-36.087 75.65-50.374 25.34-13.423 51.772-24.226 79.558-32.656z"/><path fill="#F0F0F0" d="M1445.766 1422.728c-14.675.294-29.479.153-44.278.363-3.727.052-5.37-1.302-6.264-4.721-4.683-17.919-9.523-35.796-14.239-53.706-1.868-7.099-3.556-14.244-5.029-21.574 11.897 13.452 23.36 27.23 35.135 40.734 11.348 13.013 23.02 25.744 34.675 38.904zM1209.257 1200.423c4.474-3.431 9.106-6.107 13.175-9.465 11.693-9.65 23.157-19.577 34.728-29.377.208-.176.616-.117 1.341-.233 1.95 5.738 3.92 11.536 6.213 17.507-17.355 16.928-36.45 31.875-57.28 45.052.345-7.676 1.034-15.358 1.823-23.484z"/><path fill="#ECECEC" d="M1219.218 476.11c-.216-7.177-.214-14.246-.205-21.738 17.271 13.667 34.536 27.758 51.91 42.632.089 8.193.07 15.604-.29 22.974-5.366-4.75-10.189-9.7-15.453-14.123-11.61-9.757-23.443-19.25-35.185-28.85-.1-.323-.287-.584-.777-.894z"/><path fill="#F0F0F0" d="M1314.978 1125.64c-1.976-6.352-3.891-12.862-5.264-19.485-.365-1.761.502-4.143 1.539-5.773 9.664-15.198 19.483-30.298 29.278-45.413.868-1.34 1.885-2.585 3.568-4.873 2.263 8.492 4.232 15.884 6.436 23.545-11.608 17.446-23.45 34.622-35.557 51.999zM619.007 1163.658c-.122-8.209-.122-16.12-.122-25.183 2.011 1.46 3.103 2.056 3.95 2.899 9.244 9.185 18.295 18.57 27.724 27.56 5.238 4.994 11.088 9.346 17.002 14.026-2.518 5.258-5.377 10.478-8.414 16.01-9.55-7.61-19.004-15.437-28.256-23.496-4.13-3.598-7.854-7.664-11.884-11.816zM1357 644.002c5.85-.179 11.699-.357 17.834-.86 6.53 15.481 12.773 31.285 19.009 47.462-6.305.045-12.601-.283-19.375-1.002-3.007-7.524-5.426-14.696-8.094-21.776-3.008-7.985-6.24-15.886-9.374-23.824z"/><path fill="#FEFEFE" d="M826.527 328.003c2.129 6.363 3.79 12.722 5.458 19.473-8.894 2.853-17.795 5.315-27.058 7.837-1.412-2.46-2.671-4.918-3.467-7.517-1.93-6.3-3.644-12.667-5.45-19.398 10.013-.394 20.031-.397 30.517-.395z"/><path fill="#0155B8" d="M1323.88 1267.902c5.921-6.104 11.815-12.236 17.776-18.303 3.81-3.879 7.73-7.65 11.579-11.49 6.968-6.95 14.012-13.827 20.833-20.919 2.605-2.709 4.685-5.924 7.004-8.909l2.512 1.988c-3.397 6.248-6.358 12.785-10.278 18.685-9.374 14.112-21.129 25.93-36.081 34.176-3.853 2.125-8.214 3.33-12.784 4.919-.443-.04-.562-.147-.562-.147z"/><path fill="#ECECEC" d="M1362.771 1119.271c3.839 12.347 7.435 24.877 10.932 37.435.39 1.402.22 2.96.303 4.872-4.518-3.938-8.97-8.367-13.557-12.653-3.715-3.47-7.591-6.77-11.661-10.381 4.487-6.244 9.1-12.663 13.983-19.273z"/><path fill="#E1E1E1" d="M1270.976 520.018c.018-7.41.036-14.82.08-22.711 2.27 1.564 4.516 3.608 6.899 5.93.096 8.115.055 15.952-.322 24.213-2.432-1.207-4.526-2.837-6.624-4.838a2532.91 2532.91 0 0 0-.033-2.594z"/><path fill="#0155B8" d="M1324.052 1268.07c-.11.045-.275.03-.306-.076.133-.092.252.016.306.075z"/><path fill="#F6F6F6" d="M591.16 1133.21c.254-.115.488.088.748.583-.27.167-.534-.018-.747-.584zM497.646 720.705c.149.164.093.512-.146 1.054-.142-.161-.1-.516.146-1.054z"/><path fill="#2689FF" d="M1108.703 785.934c11.782-.311 23.566-.9 35.348-.855 11.391.044 22.42 2.323 32.578 7.763 15.778 8.449 23.202 22.187 24.336 39.585 1.683 25.795-6.868 48.782-20.888 69.745-15.259 22.814-36.733 35.954-64.513 37.838-6.612.449-13.236.795-19.86.97-22.102.585-42.982-4.96-63.38-12.84-22.187-8.573-42.326-20.815-60.373-36.08-14.352-12.141-24.563-27.14-26.086-46.975-2.24-29.16 15.015-54.76 43.82-60.08 10.853-2.005 21.927-3.458 32.939-3.761 9.01-.248 18.075 1.628 27.124 2.465 1.957.18 3.953-.055 6.356-.22.424-.122.305.023.235.306.485.321 1.04.359 1.915.49 5.722 2.973 10.955 6.24 16.555 8.656 12.797 5.523 24.577 4.895 33.894-7.007m-67.815 61.036c-7.718-1.838-15.411-3.796-23.177-5.4-1.345-.277-2.999.944-4.51 1.473 1.037 1.371 1.842 3.625 3.149 3.968 7.496 1.967 15.058 3.796 22.697 5.076 13.562 2.274 26.685.305 37.795-7.937 6.612-4.906 11.8-11.733 16.162-16.197 5.015 4.262 10.715 9.565 16.887 14.246 10.155 7.704 21.648 9.676 33.876 6.156 1.609-.463 2.665-2.849 3.977-4.344-1.824-.393-3.83-1.487-5.44-1.064-8.973 2.355-17.963 2.231-25.21-3.52-7.285-5.782-13.268-13.199-19.873-19.848-1.554-1.565-3.315-2.924-4.981-4.379-1.05 1.562-2.317 3.021-3.113 4.703-4.485 9.475-10.067 17.717-20.17 22.3-8.739 3.963-17.748 5.176-28.07 4.767z"/><path fill="#F6F6F6" d="M1270.633 519.978c.352.781.362 1.522.371 3.104-.002 38.6-.004 76.359-.003 114.117 0 6.76.01 6.76 6.99 6.801l78.54.001c3.603 7.94 6.835 15.84 9.843 23.825 2.668 7.08 5.087 14.252 7.626 21.773-63.25.396-126.511.403-190.218.414.075-5.057.597-10.118 1.514-15.629 2.243-1.941 4.09-3.433 6.131-5.08-2.318-1.879-3.81-3.088-5.353-4.736.723-8.153 1.494-15.866 2.265-23.579 3.193 3.282 7.244 3.19 11.387 3.043 4.162-.146 8.332-.027 12.498-.033 6.378-.01 6.767-.367 6.77-6.814.013-34.497.006-68.994.006-103.491 0-16.5-.032-32.998.04-49.496.009-2.123.554-4.243.903-6.779 11.794 9.186 23.627 18.679 35.237 28.436 5.264 4.424 10.087 9.372 15.453 14.123z"/><path fill="#FCFCFC" d="m1186.123 665.007 5.304 4.296c-2.04 1.648-3.888 3.14-6.09 4.668-6.365.003-12.376-.029-19.298-.044-3.643.1-6.375.182-9.107.265-21.252.395-42.504.777-63.755 1.19-13.118.253-26.236.55-39.353.832-10.625.228-21.249.465-32.802.739-44.42.935-87.91 1.829-130.177 2.697 0 11.987-.173 23.264.048 34.533.222 11.296.837 22.585 1.28 33.876l-.342 4.894c-24.664.552-49.319 1.104-74.69 1.409-2.195-.082-3.674.083-5.153.247-2.339.071-4.678.142-7.461-.314-.779-6.968-1.2-13.406-1.43-19.851-.714-20.022-1.355-40.046-1.59-60.168 3.108-.08 5.78-.064 8.56.098.394.035.681-.075 1.431-.25 10.278-.305 20.093-.565 29.908-.78 30.782-.675 61.563-1.351 92.346-1.992 48.59-1.01 97.18-1.986 145.77-2.988 24.13-.498 48.26-1.022 72.86-1.464 6.292-.116 12.115-.302 18.384-.49a2027.19 2027.19 0 0 0 15.357-1.403M837.71 710.494c-1.216 4.919.595 9.683 4.358 11.47 5.044 2.395 10.642.7 12.86-3.894 2.278-4.716.717-10.06-3.657-12.521-5.302-2.985-9.83-1.542-13.561 4.945z"/><path fill="#BFD8FF" d="M801.073 674.374c.669 20.024 1.31 40.048 2.024 60.07.23 6.445.651 12.883 1 19.77-23.724.95-47.458 1.553-71.197 1.89-5.373.075-10.759-.775-16.537-1.18-4.332-4.243-5.346-9.292-5.47-15.02-.376-17.33-1.237-34.65-1.931-52.436 1.186-5.625 4.195-9.153 9.2-11.1 1.115-.434 1.883-1.76 3.132-2.79 1.13 3.578 4.07 2.391 6.32 2.348 24.487-.473 48.973-1.023 73.459-1.552z"/><path fill="#4896FF" d="M892.63 748.042c-.9-11.274-1.515-22.563-1.737-33.86-.22-11.268-.048-22.545-.048-34.532 42.266-.868 85.757-1.762 129.717-2.612 1.094 15.443 1.542 30.852 2.395 46.238.79 14.229-6.05 22.805-20.794 22.793-23.253-.018-46.508.552-69.76.966-13.107.233-26.211.653-39.774 1.007m25.389-43.538c-.824.825-1.657 1.641-2.469 2.477-4.377 4.507-4.499 5.092.09 9.042 8.674 7.467 17.176 15.416 27.98 19.644 18.977 7.427 33 4.023 39.597-16.224 1.84-5.647 3.648-12.389-.747-17.058-8.21-8.72-18.865-13.738-31.063-13.198-12.718.563-23.591 6.167-33.388 15.317z"/><path fill="#FEFEFE" d="M1108.828 785.604c-9.442 12.232-21.222 12.86-34.02 7.337-5.6-2.417-10.832-5.683-16.782-8.858-.906-.386-1.261-.479-1.617-.571 0 0 .119-.145.128-.24-5.868-5.271-11.829-10.343-12.985-18.847-1.02-7.504 1.845-13.683 9.153-15.55 7.79-1.988 15.95-2.938 24.002-3.371 7.76-.418 15.628-.005 23.375.771 13.507 1.355 20.032 10.86 16.181 23.896-1.563 5.292-4.822 10.084-7.435 15.433z"/><path fill="#0155B8" d="M1131.43 730.712c-9.61 2.825-17.9.392-23.6-7.785-2.97-4.262-5.127-9.35-6.523-14.378-1.362-4.9-.233-9.552 3.987-13.555 12.425-11.788 30.538-12.147 43.765-.404 11.145 9.893 11.06 10.23 1.415 21.578-5.242 6.17-11.132 11.3-19.044 14.544z"/><path fill="#4896FF" d="M1156.99 674.538c2.674-.43 5.406-.512 8.588-.53-.66 3.044-1.773 6.022-2.885 9l-1.492.017c-1.385-2.713-2.769-5.426-4.211-8.487z"/><path fill="#BFD8FF" d="M812.397 754.716c1.07-.271 2.55-.436 4.302-.42-1.114.296-2.503.412-4.302.42z"/><path fill="#F0F0F0" d="M1209.58 1197.33c.276.017.295.217.104.501-.08.074-.23-.327-.104-.5zM1210.54 1191.374c.258.032.248.28-.09.593-.122.079.03-.366.09-.593z"/><path fill="#017CFF" d="M801.508 674.276c-24.921.627-49.407 1.177-73.894 1.65-2.25.043-5.19 1.23-6.287-2.725-3.679-10.05-7.071-19.837-10.649-29.907-5.314-17.152-10.792-33.935-12.26-51.667-1.948-23.547-1.58-46.934 5.516-69.73 1.465-4.709 3.604-9.342 6.206-13.53 3.696-5.948 7.783-7.594 14.013-4.517 6.297 3.109 12.593 7.049 17.482 12.01 10.39 10.546 19.414 22.437 29.816 32.968 18.137 18.363 36.621 36.426 59.071 49.74 2.837 1.683 5.208 1.85 8.353.753 32.18-11.22 65.503-15.949 99.423-17.555 32.354-1.533 64.599-.33 96.74 3.287 7.874.886 15.675 3.079 23.275 5.429 3.781 1.169 5.608.352 7.83-2.548 23.009-30.036 50.937-54.315 84.533-71.956 12.367-6.493 15.015-6.16 21.309 6.48 13.824 27.762 20.866 57.077 18.503 88.302-.654 8.636-1.202 17.281-1.882 26.54-.239.944-.215 1.26-.015 1.562-.126.468-.252.935-.315 1.765-.708 8.075-1.48 15.788-2.202 23.94-4.921.907-9.892 1.375-15.608 1.567-.833-1.207-1.119-2.17-.976-3.065 1.486-9.309 3.295-18.574 4.5-27.917 1.08-8.37 1.316-16.846 2.279-25.235 1.55-13.503 1.037-26.858-2.488-39.99-1.693-6.312-7.396-8.407-12.807-4.847-2.892 1.903-5.666 4.147-8.019 6.677-10.184 10.949-20.18 22.071-30.271 33.108-4.096 4.48-8.258 8.9-10.828 11.667 5.616 6.553 11.35 12.817 16.596 19.467 7.997 10.137 15.657 20.54 23.46 30.831-24.13.512-48.26 1.036-72.39 1.534-48.59 1.002-97.18 1.978-145.77 2.988-30.783.64-61.564 1.317-92.346 1.992-9.815.215-19.63.475-30.18.717-.91.058-1.088.113-1.266.168-2.672-.017-5.345-.034-8.452.047m-43.524-114.738c-4.319-4.819-8.344-9.955-13.066-14.34-2.859-2.654-6.67-5.473-10.284-5.82-4.491-.43-6.175 4.427-7.328 8.221-3.322 10.923-3.141 22.027-2.587 33.405 1.082 22.188 6.81 42.826 17.467 62.151 1.957 3.55 4.492 7.208 7.686 9.559 6.658 4.901 14.534 2.72 21.592-5.812 9.416-11.38 20.19-21.174 32.885-28.645 6.495-3.823 8.094-11.634.415-16.848-17.27-11.728-32.66-25.555-46.78-41.87z"/><path fill="#F6F6F6" d="M1188.705 638.663c-.314-.103-.338-.419-.017-.934.238.123.226.43.017.934z"/><path fill="#F0F0F0" d="M1277.992 643.531c-6.982.429-6.99.429-6.99-6.332-.002-37.758 0-75.517.006-113.746 2.1 1.16 4.193 2.79 6.617 4.463.342 38.41.356 76.778.367 115.615z"/><path fill="#0263D1" d="M1041.35 846.99c9.859.39 18.868-.824 27.607-4.787 10.103-4.583 15.685-12.825 20.17-22.3.796-1.682 2.063-3.14 3.113-4.703 1.666 1.455 3.427 2.814 4.981 4.38 6.605 6.648 12.588 14.065 19.873 19.846 7.247 5.752 16.237 5.876 25.21 3.52 1.61-.422 3.616.672 5.44 1.065-1.312 1.495-2.368 3.881-3.977 4.344-12.228 3.52-23.721 1.548-33.876-6.156-6.172-4.681-11.872-9.984-16.887-14.246-4.363 4.464-9.55 11.29-16.162 16.197-11.11 8.242-24.233 10.211-37.795 7.937-7.639-1.28-15.201-3.11-22.697-5.076-1.307-.343-2.112-2.597-3.149-3.968 1.511-.529 3.165-1.75 4.51-1.472 7.766 1.603 15.459 3.561 23.64 5.42z"/><path fill="#007CFF" d="M1056.34 783.795c.425-.19.78-.098 1.364.196-.326.163-.88.125-1.365-.196z"/><path fill="#4896FF" d="M1152.381 666.9c-8.272-10.36-15.932-20.764-23.929-30.901-5.246-6.65-10.98-12.914-16.596-19.467 2.57-2.767 6.732-7.187 10.828-11.667 10.09-11.037 20.087-22.16 30.271-33.108 2.353-2.53 5.127-4.774 8.019-6.677 5.411-3.56 11.114-1.465 12.807 4.847 3.525 13.132 4.037 26.487 2.488 39.99-.963 8.389-1.2 16.865-2.279 25.235-1.205 9.343-3.014 18.608-4.5 27.917-.143.895.143 1.858.53 3.066-5.523.463-11.346.649-17.639.765z"/><path fill="#E1E1E1" d="M837.858 710.135c3.581-6.128 8.11-7.571 13.412-4.586 4.374 2.462 5.935 7.805 3.657 12.52-2.218 4.595-7.816 6.29-12.86 3.895-3.763-1.787-5.574-6.551-4.21-11.829z"/><path fill="#BFD8FF" d="M810.067 674.374c.07-.2.248-.255.698-.248-.017.173-.304.283-.698.248z"/><path fill="#4479C6" d="M918.269 704.252c9.546-8.898 20.42-14.502 33.137-15.065 12.198-.54 22.853 4.477 31.063 13.198 4.395 4.67 2.587 11.411.747 17.058-6.597 20.247-20.62 23.651-39.597 16.224-10.804-4.228-19.306-12.177-27.98-19.644-4.589-3.95-4.467-4.535-.09-9.042.812-.836 1.645-1.652 2.72-2.729z"/><path fill="#4896FF" d="M758.233 559.793c13.871 16.061 29.262 29.888 46.531 41.616 7.679 5.214 6.08 13.025-.415 16.848-12.695 7.47-23.47 17.265-32.885 28.645-7.058 8.532-14.934 10.713-21.592 5.812-3.194-2.351-5.73-6.01-7.686-9.559-10.657-19.325-16.385-39.963-17.467-62.151-.554-11.378-.735-22.482 2.587-33.405 1.153-3.794 2.837-8.651 7.328-8.22 3.613.346 7.425 3.165 10.284 5.82 4.722 4.384 8.747 9.52 13.315 14.594z"/></svg>